<svg width="25" height="25" viewBox="0 0 25 25" fill="none" xmlns="http://www.w3.org/2000/svg">
<circle cx="12.5" cy="12.5" r="12.5" fill="#F4664E"/>
<path d="M9.42934 6.30499L10.4911 5.98488C10.8415 5.8794 11.2183 5.90499 11.5512 6.05688C11.8842 6.20877 12.1505 6.47658 12.3005 6.81037L13.0448 8.46573C13.174 8.75291 13.21 9.07334 13.1478 9.38203C13.0856 9.69072 12.9282 9.97217 12.6979 10.1869L11.5649 11.2426C11.413 11.3867 11.5281 11.9486 12.0829 12.91C12.6381 13.872 13.0673 14.2524 13.2652 14.1932L14.7495 13.7393C15.0504 13.6473 15.3725 13.6517 15.6708 13.752C15.969 13.8522 16.2284 14.0433 16.4126 14.2984L17.4705 15.7647C17.6841 16.0608 17.7831 16.4243 17.7489 16.7879C17.7147 17.1514 17.5498 17.4902 17.2846 17.7412L16.4668 18.5158C16.2028 18.7658 15.8772 18.9413 15.5232 19.0244C15.1693 19.1075 14.7996 19.0952 14.4519 18.9888C12.7384 18.4642 11.1516 16.9075 9.66997 14.3406C8.18508 11.7699 7.62434 9.60146 8.01516 7.82989C8.09398 7.47292 8.26658 7.14343 8.51516 6.87539C8.76374 6.60734 9.07931 6.41044 9.42934 6.30499Z" fill="white"/>
</svg>
