<svg width="25" height="25" viewBox="0 0 25 25" fill="none" xmlns="http://www.w3.org/2000/svg">
    <circle cx="12.5" cy="12.5" r="12.5" fill="white"/>
    <path fill-rule="evenodd" clip-rule="evenodd" d="M5 9.75C5 9.28587 5.18437 8.84075 5.51256 8.51256C5.84075 8.18437 6.28587 8 6.75 8H13.3125C13.737 7.99995 14.147 8.15417 14.4662 8.43394C14.7854 8.71371 14.992 9.09995 15.0476 9.52075L17.7689 8.3115C17.9021 8.25215 18.048 8.22703 18.1934 8.23842C18.3387 8.24982 18.479 8.29737 18.6013 8.37674C18.7236 8.45612 18.8242 8.56481 18.8938 8.69293C18.9634 8.82106 18.9999 8.96455 19 9.11038V15.6396C18.9999 15.7853 18.9634 15.9287 18.8938 16.0567C18.8242 16.1847 18.7237 16.2934 18.6015 16.3727C18.4793 16.4521 18.3392 16.4996 18.194 16.5111C18.0487 16.5226 17.9029 16.4977 17.7697 16.4385L15.0476 15.2292C14.992 15.65 14.7854 16.0363 14.4662 16.3161C14.147 16.5958 13.737 16.75 13.3125 16.75H6.75C6.28587 16.75 5.84075 16.5656 5.51256 16.2374C5.18437 15.9092 5 15.4641 5 15V9.75Z" fill="#4E5768"/>
</svg>
