<svg width="25" height="25" viewBox="0 0 25 25" fill="none" xmlns="http://www.w3.org/2000/svg">
<circle cx="12.5" cy="12.5" r="12.5" fill="white"/>
<path fill-rule="evenodd" clip-rule="evenodd" d="M10.1364 6C10.2931 6 10.4434 6.06226 10.5542 6.17307C10.665 6.28389 10.7273 6.43419 10.7273 6.59091V10.1364C10.7273 10.2931 10.665 10.4434 10.5542 10.5542C10.4434 10.665 10.2931 10.7273 10.1364 10.7273H6.59091C6.43419 10.7273 6.28389 10.665 6.17307 10.5542C6.06226 10.4434 6 10.2931 6 10.1364C6 9.97964 6.06226 9.82934 6.17307 9.71853C6.28389 9.60771 6.43419 9.54545 6.59091 9.54545H9.54545V6.59091C9.54545 6.43419 9.60771 6.28389 9.71853 6.17307C9.82934 6.06226 9.97964 6 10.1364 6V6ZM14.8636 6C15.0204 6 15.1707 6.06226 15.2815 6.17307C15.3923 6.28389 15.4545 6.43419 15.4545 6.59091V9.54545H18.4091C18.5658 9.54545 18.7161 9.60771 18.8269 9.71853C18.9377 9.82934 19 9.97964 19 10.1364C19 10.2931 18.9377 10.4434 18.8269 10.5542C18.7161 10.665 18.5658 10.7273 18.4091 10.7273H14.8636C14.7069 10.7273 14.5566 10.665 14.4458 10.5542C14.335 10.4434 14.2727 10.2931 14.2727 10.1364V6.59091C14.2727 6.43419 14.335 6.28389 14.4458 6.17307C14.5566 6.06226 14.7069 6 14.8636 6V6ZM6 14.8636C6 14.7069 6.06226 14.5566 6.17307 14.4458C6.28389 14.335 6.43419 14.2727 6.59091 14.2727H10.1364C10.2931 14.2727 10.4434 14.335 10.5542 14.4458C10.665 14.5566 10.7273 14.7069 10.7273 14.8636V18.4091C10.7273 18.5658 10.665 18.7161 10.5542 18.8269C10.4434 18.9377 10.2931 19 10.1364 19C9.97964 19 9.82934 18.9377 9.71853 18.8269C9.60771 18.7161 9.54545 18.5658 9.54545 18.4091V15.4545H6.59091C6.43419 15.4545 6.28389 15.3923 6.17307 15.2815C6.06226 15.1707 6 15.0204 6 14.8636ZM14.2727 14.8636C14.2727 14.7069 14.335 14.5566 14.4458 14.4458C14.5566 14.335 14.7069 14.2727 14.8636 14.2727H18.4091C18.5658 14.2727 18.7161 14.335 18.8269 14.4458C18.9377 14.5566 19 14.7069 19 14.8636C19 15.0204 18.9377 15.1707 18.8269 15.2815C18.7161 15.3923 18.5658 15.4545 18.4091 15.4545H15.4545V18.4091C15.4545 18.5658 15.3923 18.7161 15.2815 18.8269C15.1707 18.9377 15.0204 19 14.8636 19C14.7069 19 14.5566 18.9377 14.4458 18.8269C14.335 18.7161 14.2727 18.5658 14.2727 18.4091V14.8636Z" fill="#4E5768"/>
</svg>
