<svg width="19" height="14" viewBox="0 0 19 14" fill="none" xmlns="http://www.w3.org/2000/svg">
<path d="M7.00195 4.08398C7.00195 4.54811 6.81758 4.99323 6.48939 5.32142C6.1612 5.64961 5.71608 5.83398 5.25195 5.83398C4.78782 5.83398 4.3427 5.64961 4.01452 5.32142C3.68633 4.99323 3.50195 4.54811 3.50195 4.08398C3.50195 3.61986 3.68633 3.17474 4.01452 2.84655C4.3427 2.51836 4.78782 2.33398 5.25195 2.33398C5.71608 2.33398 6.1612 2.51836 6.48939 2.84655C6.81758 3.17474 7.00195 3.61986 7.00195 4.08398Z" fill="#2A3242"/>
<path d="M1.75 0C1.28587 0 0.840752 0.184375 0.512563 0.512563C0.184374 0.840752 0 1.28587 0 1.75L0 12.25C0 12.7141 0.184374 13.1592 0.512563 13.4874C0.840752 13.8156 1.28587 14 1.75 14H16.9167C17.3808 14 17.8259 13.8156 18.1541 13.4874C18.4823 13.1592 18.6667 12.7141 18.6667 12.25V1.75C18.6667 1.28587 18.4823 0.840752 18.1541 0.512563C17.8259 0.184375 17.3808 0 16.9167 0H1.75ZM16.9167 1.16667C17.0714 1.16667 17.2197 1.22812 17.3291 1.33752C17.4385 1.44692 17.5 1.59529 17.5 1.75V8.75L13.0958 6.4785C12.9864 6.42369 12.8626 6.40468 12.7417 6.42415C12.6209 6.44362 12.5093 6.50059 12.4227 6.587L8.09433 10.9153L4.991 8.848C4.87895 8.7734 4.74456 8.73985 4.61059 8.75303C4.47663 8.76622 4.35136 8.82533 4.256 8.92033L1.169 11.6667V12.2967C1.16761 12.2811 1.16683 12.2656 1.16667 12.25V1.75C1.16667 1.59529 1.22812 1.44692 1.33752 1.33752C1.44692 1.22812 1.59529 1.16667 1.75 1.16667H16.9167Z" fill="#2A3242"/>
</svg>
