<svg width="25" height="25" viewBox="0 0 25 25" fill="none" xmlns="http://www.w3.org/2000/svg">
<circle cx="12.5" cy="12.5" r="12.5" fill="white"/>
<path d="M9.62109 8.51136C9.62109 7.82433 9.89402 7.16543 10.3798 6.67963C10.8656 6.19382 11.5245 5.9209 12.2116 5.9209C12.8986 5.9209 13.5575 6.19382 14.0433 6.67963C14.5291 7.16543 14.802 7.82433 14.802 8.51136V12.8288C14.802 13.5158 14.5291 14.1747 14.0433 14.6605C13.5575 15.1463 12.8986 15.4193 12.2116 15.4193C11.5245 15.4193 10.8656 15.1463 10.3798 14.6605C9.89402 14.1747 9.62109 13.5158 9.62109 12.8288V8.51136Z" fill="#4E5768"/>
<path d="M8.32627 11.5337C8.44078 11.5337 8.5506 11.5792 8.63156 11.6601C8.71253 11.7411 8.75802 11.8509 8.75802 11.9654V12.8289C8.75802 13.745 9.12191 14.6235 9.76966 15.2712C10.4174 15.919 11.2959 16.2829 12.212 16.2829C13.128 16.2829 14.0065 15.919 14.6543 15.2712C15.302 14.6235 15.6659 13.745 15.6659 12.8289V11.9654C15.6659 11.8509 15.7114 11.7411 15.7924 11.6601C15.8733 11.5792 15.9832 11.5337 16.0977 11.5337C16.2122 11.5337 16.322 11.5792 16.4029 11.6601C16.4839 11.7411 16.5294 11.8509 16.5294 11.9654V12.8289C16.5294 13.8992 16.1319 14.9314 15.4139 15.7252C14.6959 16.519 13.7087 17.0177 12.6437 17.1248V18.8733H15.2342C15.3487 18.8733 15.4585 18.9188 15.5395 18.9998C15.6204 19.0808 15.6659 19.1906 15.6659 19.3051C15.6659 19.4196 15.6204 19.5294 15.5395 19.6104C15.4585 19.6913 15.3487 19.7368 15.2342 19.7368H9.18976C9.07526 19.7368 8.96544 19.6913 8.88447 19.6104C8.80351 19.5294 8.75802 19.4196 8.75802 19.3051C8.75802 19.1906 8.80351 19.0808 8.88447 18.9998C8.96544 18.9188 9.07526 18.8733 9.18976 18.8733H11.7802V17.1248C10.7153 17.0177 9.72804 16.519 9.01005 15.7252C8.29207 14.9314 7.89452 13.8992 7.89453 12.8289V11.9654C7.89453 11.8509 7.94002 11.7411 8.02099 11.6601C8.10195 11.5792 8.21177 11.5337 8.32627 11.5337Z" fill="#4E5768"/>
</svg>
