<svg width="25" height="25" viewBox="0 0 25 25" fill="none" xmlns="http://www.w3.org/2000/svg">
<circle cx="12.5" cy="12.5" r="12.5" fill="white"/>
<path d="M7.43424 6.57895H17.5658C18.1416 6.57895 18.6938 6.79844 19.101 7.18914C19.5081 7.57984 19.7369 8.10975 19.7369 8.66228V14.9123C19.7369 15.4648 19.5081 15.9947 19.101 16.3854C18.6938 16.7761 18.1416 16.9956 17.5658 16.9956H7.43424C6.85844 16.9956 6.30622 16.7761 5.89907 16.3854C5.49192 15.9947 5.26318 15.4648 5.26318 14.9123V8.66228C5.26318 8.10975 5.49192 7.57984 5.89907 7.18914C6.30622 6.79844 6.85844 6.57895 7.43424 6.57895ZM10.329 17.6901H14.6711C14.863 17.6901 15.0471 17.7632 15.1828 17.8935C15.3185 18.0237 15.3948 18.2003 15.3948 18.3845C15.3948 18.5687 15.3185 18.7453 15.1828 18.8755C15.0471 19.0058 14.863 19.0789 14.6711 19.0789H10.329C10.137 19.0789 9.95297 19.0058 9.81725 18.8755C9.68153 18.7453 9.60529 18.5687 9.60529 18.3845C9.60529 18.2003 9.68153 18.0237 9.81725 17.8935C9.95297 17.7632 10.137 17.6901 10.329 17.6901Z" fill="#4E5768"/>
<path fill-rule="evenodd" clip-rule="evenodd" d="M12.5414 14.4743C12.4651 14.4743 12.3919 14.444 12.3379 14.39C12.2839 14.3361 12.2536 14.2628 12.2536 14.1865L12.2536 10.8517L11.0182 12.0876C10.9915 12.1144 10.9597 12.1356 10.9247 12.1501C10.8898 12.1646 10.8523 12.172 10.8144 12.172C10.7766 12.172 10.7391 12.1646 10.7042 12.1501C10.6692 12.1356 10.6374 12.1144 10.6107 12.0876C10.5839 12.0609 10.5627 12.0291 10.5482 11.9941C10.5337 11.9592 10.5262 11.9217 10.5262 11.8838C10.5262 11.846 10.5337 11.8085 10.5482 11.7735C10.5627 11.7386 10.5839 11.7068 10.6107 11.68L12.3377 9.95304C12.3644 9.92624 12.3962 9.90497 12.4311 9.89046C12.4661 9.87595 12.5036 9.86848 12.5414 9.86848C12.5793 9.86848 12.6168 9.87595 12.6518 9.89046C12.6867 9.90497 12.7185 9.92624 12.7452 9.95304L14.4722 11.68C14.499 11.7068 14.5202 11.7386 14.5347 11.7735C14.5492 11.8085 14.5566 11.846 14.5566 11.8838C14.5566 11.9217 14.5492 11.9592 14.5347 11.9941C14.5202 12.0291 14.499 12.0609 14.4722 12.0876C14.4182 12.1417 14.3449 12.172 14.2684 12.172C14.2306 12.172 14.1931 12.1646 14.1582 12.1501C14.1232 12.1356 14.0914 12.1144 14.0647 12.0876L12.8293 10.8517L12.8293 14.1865C12.8293 14.2628 12.7989 14.3361 12.745 14.39C12.691 14.444 12.6178 14.4743 12.5414 14.4743Z" fill="white"/>
<rect x="7.88716" y="5.65227" width="16.0928" height="1.5" transform="rotate(55.4161 7.88716 5.65227)" fill="#4E5768" stroke="white" stroke-width="0.5"/>
</svg>
