<svg width="25" height="25" viewBox="0 0 25 25" fill="none" xmlns="http://www.w3.org/2000/svg">
<circle cx="12.5" cy="12.5" r="12.5" fill="white"/>
<path d="M9.62183 8.51148C9.62183 7.82445 9.89475 7.16555 10.3806 6.67975C10.8664 6.19394 11.5253 5.92102 12.2123 5.92102C12.8993 5.92102 13.5582 6.19394 14.044 6.67975C14.5298 7.16555 14.8027 7.82445 14.8027 8.51148V12.8289C14.8027 13.5159 14.5298 14.1748 14.044 14.6606C13.5582 15.1465 12.8993 15.4194 12.2123 15.4194C11.5253 15.4194 10.8664 15.1465 10.3806 14.6606C9.89475 14.1748 9.62183 13.5159 9.62183 12.8289V8.51148Z" fill="#4E5768"/>
<path d="M8.32652 11.5337C8.44102 11.5337 8.55084 11.5792 8.63181 11.6601C8.71278 11.7411 8.75826 11.8509 8.75826 11.9654V12.8289C8.75826 13.745 9.12216 14.6235 9.7699 15.2712C10.4176 15.919 11.2962 16.2829 12.2122 16.2829C13.1283 16.2829 14.0068 15.919 14.6545 15.2712C15.3023 14.6235 15.6662 13.745 15.6662 12.8289V11.9654C15.6662 11.8509 15.7116 11.7411 15.7926 11.6601C15.8736 11.5792 15.9834 11.5337 16.0979 11.5337C16.2124 11.5337 16.3222 11.5792 16.4032 11.6601C16.4842 11.7411 16.5296 11.8509 16.5296 11.9654V12.8289C16.5297 13.8992 16.1321 14.9314 15.4141 15.7252C14.6961 16.519 13.7089 17.0177 12.644 17.1248V18.8733H15.2344C15.3489 18.8733 15.4587 18.9188 15.5397 18.9998C15.6207 19.0808 15.6662 19.1906 15.6662 19.3051C15.6662 19.4196 15.6207 19.5294 15.5397 19.6104C15.4587 19.6913 15.3489 19.7368 15.2344 19.7368H9.19001C9.0755 19.7368 8.96568 19.6913 8.88472 19.6104C8.80375 19.5294 8.75826 19.4196 8.75826 19.3051C8.75826 19.1906 8.80375 19.0808 8.88472 18.9998C8.96568 18.9188 9.0755 18.8733 9.19001 18.8733H11.7805V17.1248C10.7155 17.0177 9.72828 16.519 9.0103 15.7252C8.29231 14.9314 7.89476 13.8992 7.89478 12.8289V11.9654C7.89478 11.8509 7.94026 11.7411 8.02123 11.6601C8.1022 11.5792 8.21201 11.5337 8.32652 11.5337Z" fill="#4E5768"/>
<rect x="8.88716" y="5.65227" width="16.0928" height="1.5" transform="rotate(55.4161 8.88716 5.65227)" fill="#4E5768" stroke="white" stroke-width="0.5"/>
</svg>
