<svg width="25" height="25" viewBox="0 0 25 25" fill="none" xmlns="http://www.w3.org/2000/svg">
<circle cx="12.5" cy="12.5" r="12.5" fill="white"/>
<path d="M14.4325 7.09388C14.4327 6.99259 14.403 6.89349 14.347 6.80904C14.2911 6.7246 14.2114 6.65857 14.1181 6.61925C14.0247 6.57993 13.9218 6.56907 13.8223 6.58804C13.7228 6.60701 13.6311 6.65497 13.5588 6.72587L10.551 9.65556H8.77876C8.36981 9.65556 7.97761 9.81802 7.68844 10.1072C7.39927 10.3964 7.23682 10.7886 7.23682 11.1975V14.2711C7.23682 14.6801 7.39927 15.0723 7.68844 15.3614C7.97761 15.6506 8.36981 15.813 8.77876 15.813H10.5499L13.5577 18.7684C13.63 18.8396 13.7217 18.8879 13.8212 18.9071C13.9208 18.9263 14.0239 18.9156 14.1174 18.8764C14.2109 18.8371 14.2907 18.7711 14.3468 18.6866C14.4029 18.6021 14.4327 18.5029 14.4325 18.4014V7.09388Z" fill="#4E5768"/>
<path d="M15.5737 9.85806C15.6157 9.80517 15.6678 9.76109 15.7268 9.72833C15.7859 9.69558 15.8509 9.67478 15.918 9.66714C15.9851 9.65951 16.0531 9.66517 16.118 9.68382C16.1829 9.70247 16.2435 9.73373 16.2964 9.77582H16.2974L16.2984 9.77685L16.3005 9.77891L16.3066 9.78302L16.3221 9.79638L16.3683 9.8375C16.5853 10.0458 16.7743 10.2815 16.9306 10.5386C17.2308 11.032 17.5207 11.7649 17.5207 12.7466C17.5207 13.7273 17.2308 14.4613 16.9306 14.9547C16.811 15.1534 16.6719 15.3397 16.5153 15.5108C16.4497 15.5819 16.38 15.6492 16.3066 15.7123L16.2984 15.7195C16.2984 15.7195 15.8389 15.9693 15.5747 15.6393C15.4902 15.5333 15.451 15.3982 15.4657 15.2634C15.4803 15.1287 15.5476 15.0051 15.6529 14.9197L15.6539 14.9177V14.9187L15.6549 14.9177L15.6734 14.9012C15.8194 14.7577 15.9468 14.5964 16.0527 14.4212C16.2676 14.0665 16.4927 13.5145 16.4927 12.7456C16.4927 11.9777 16.2676 11.4267 16.0527 11.0731C15.9467 10.8986 15.8193 10.738 15.6734 10.5951C15.6673 10.5895 15.6612 10.584 15.6549 10.5787H15.6559C15.5497 10.4938 15.4815 10.3704 15.466 10.2353C15.4506 10.1003 15.4893 9.96464 15.5737 9.85806Z" fill="#4E5768"/>
<rect x="7.88716" y="5.65227" width="16.0928" height="1.5" transform="rotate(55.4161 7.88716 5.65227)" fill="#4E5768" stroke="white" stroke-width="0.5"/>
</svg>
