<svg width="25" height="25" viewBox="0 0 25 25" fill="none" xmlns="http://www.w3.org/2000/svg">
<circle cx="12.5" cy="12.5" r="12.5" fill="white"/>
<path fill-rule="evenodd" clip-rule="evenodd" d="M15.0147 16.9479C15.2685 16.6775 15.4309 16.3343 15.4791 15.9666L18.246 17.1961C18.3814 17.2565 18.5298 17.282 18.6776 17.2704C18.8254 17.2588 18.968 17.2105 19.0923 17.1298C19.2167 17.0491 19.3189 16.9386 19.3897 16.8083C19.4605 16.678 19.4977 16.5321 19.4977 16.3839V9.74524C19.4976 9.59709 19.4605 9.45132 19.3897 9.32116C19.319 9.19099 19.2168 9.08056 19.0926 8.99987C18.9683 8.91919 18.8259 8.87081 18.6782 8.85913C18.5305 8.84745 18.3822 8.87284 18.2469 8.93298L15.4791 10.1625C15.4226 9.73465 15.2125 9.34193 14.8879 9.05747C14.5634 8.77302 14.1465 8.61622 13.7149 8.61627H9.0638L15.0147 16.9479ZM6.01672 8.94099C5.78383 9.1054 5.59383 9.32333 5.4627 9.57646C5.33157 9.82959 5.26314 10.1105 5.26318 10.3956V15.7335C5.26318 16.2054 5.45065 16.658 5.78433 16.9917C6.11802 17.3254 6.5706 17.5128 7.0425 17.5128H12.1385L6.01672 8.94099ZM14.6873 19.5502L5.79075 7.09495L6.51493 6.57895L15.4115 19.0342L14.6873 19.5502Z" fill="#4E5768"/>
</svg>
