<svg width="24" height="23" viewBox="0 0 24 23" fill="none" xmlns="http://www.w3.org/2000/svg">
<path d="M1.79029 0.12466L22.8603 10.3554C23.073 10.4588 23.2525 10.6211 23.3782 10.8236C23.5039 11.0261 23.5706 11.2606 23.5706 11.5C23.5706 11.7394 23.5039 11.9739 23.3782 12.1764C23.2525 12.3789 23.073 12.5412 22.8603 12.6446L1.79029 22.8753C1.5742 22.9805 1.3329 23.0204 1.09512 22.9902C0.85734 22.9601 0.633104 22.8612 0.449121 22.7053C0.265138 22.5495 0.129162 22.3432 0.0573883 22.1111C-0.0143853 21.879 -0.0189315 21.6309 0.0442913 21.3963L2.15229 13.5511C2.1781 13.455 2.23121 13.3687 2.30501 13.303C2.3788 13.2372 2.47002 13.195 2.56729 13.1816L12.7773 11.7736C12.8199 11.7675 12.8602 11.7504 12.8943 11.7239C12.9285 11.6974 12.9553 11.6624 12.9723 11.6223L12.9903 11.5584C12.9982 11.5017 12.987 11.444 12.9585 11.3946C12.93 11.3452 12.8858 11.307 12.8333 11.2863L12.7783 11.2711L2.57829 9.86407C2.4812 9.85045 2.3902 9.80817 2.3166 9.74247C2.24299 9.67677 2.19003 9.59056 2.16429 9.49456L0.0442913 1.60374C-0.0189315 1.3691 -0.0143853 1.12096 0.0573883 0.888869C0.129162 0.656779 0.265138 0.450521 0.449121 0.294665C0.633104 0.138808 0.85734 0.0399198 1.09512 0.00977901C1.3329 -0.0203617 1.5742 0.019515 1.79029 0.12466Z" fill="#DBDBDB"/>
</svg>
