<svg width="25" height="25" viewBox="0 0 25 25" fill="none" xmlns="http://www.w3.org/2000/svg">
<circle cx="12.5" cy="12.5" r="12.5" fill="white"/>
<path d="M7.43375 6.5791H17.5653C18.1411 6.5791 18.6933 6.79859 19.1005 7.1893C19.5076 7.58 19.7364 8.1099 19.7364 8.66243V14.9124C19.7364 15.465 19.5076 15.9949 19.1005 16.3856C18.6933 16.7763 18.1411 16.9958 17.5653 16.9958H7.43375C6.85795 16.9958 6.30573 16.7763 5.89858 16.3856C5.49143 15.9949 5.2627 15.465 5.2627 14.9124V8.66243C5.2627 8.1099 5.49143 7.58 5.89858 7.1893C6.30573 6.79859 6.85795 6.5791 7.43375 6.5791ZM10.3285 17.6902H14.6706C14.8625 17.6902 15.0466 17.7634 15.1823 17.8936C15.318 18.0238 15.3943 18.2005 15.3943 18.3847C15.3943 18.5688 15.318 18.7455 15.1823 18.8757C15.0466 19.0059 14.8625 19.0791 14.6706 19.0791H10.3285C10.1366 19.0791 9.95248 19.0059 9.81676 18.8757C9.68105 18.7455 9.6048 18.5688 9.6048 18.3847C9.6048 18.2005 9.68105 18.0238 9.81676 17.8936C9.95248 17.7634 10.1366 17.6902 10.3285 17.6902Z" fill="#4E5768"/>
<path fill-rule="evenodd" clip-rule="evenodd" d="M12.5414 14.4741C12.4651 14.4741 12.3919 14.4438 12.3379 14.3898C12.2839 14.3358 12.2536 14.2626 12.2536 14.1863L12.2536 10.8514L11.0182 12.0874C10.9915 12.1142 10.9597 12.1354 10.9247 12.1499C10.8898 12.1644 10.8523 12.1718 10.8144 12.1718C10.7766 12.1718 10.7391 12.1644 10.7042 12.1499C10.6692 12.1354 10.6374 12.1142 10.6107 12.0874C10.5839 12.0606 10.5627 12.0289 10.5482 11.9939C10.5337 11.9589 10.5262 11.9215 10.5262 11.8836C10.5262 11.8458 10.5337 11.8083 10.5482 11.7733C10.5627 11.7384 10.5839 11.7066 10.6107 11.6798L12.3377 9.95283C12.3644 9.92603 12.3962 9.90476 12.4311 9.89025C12.4661 9.87574 12.5036 9.86827 12.5414 9.86827C12.5793 9.86827 12.6168 9.87574 12.6518 9.89025C12.6867 9.90476 12.7185 9.92603 12.7452 9.95283L14.4722 11.6798C14.499 11.7066 14.5202 11.7384 14.5347 11.7733C14.5492 11.8083 14.5566 11.8458 14.5566 11.8836C14.5566 11.9215 14.5492 11.9589 14.5347 11.9939C14.5202 12.0289 14.499 12.0606 14.4722 12.0874C14.4182 12.1415 14.3449 12.1718 14.2684 12.1718C14.2306 12.1718 14.1931 12.1644 14.1582 12.1499C14.1232 12.1354 14.0914 12.1142 14.0647 12.0874L12.8293 10.8514L12.8293 14.1863C12.8293 14.2626 12.7989 14.3358 12.745 14.3898C12.691 14.4438 12.6178 14.4741 12.5414 14.4741Z" fill="white"/>
</svg>
