<svg width="25" height="25" viewBox="0 0 25 25" fill="none" xmlns="http://www.w3.org/2000/svg">
<circle cx="12.5" cy="12.5" r="12.5" fill="white"/>
<path d="M14.433 7.09404C14.4332 6.99274 14.4035 6.89364 14.3475 6.8092C14.2916 6.72475 14.2119 6.65872 14.1186 6.6194C14.0252 6.58008 13.9223 6.56922 13.8228 6.5882C13.7233 6.60717 13.6316 6.65512 13.5593 6.72603L10.5514 9.65571H8.77925C8.3703 9.65571 7.9781 9.81817 7.68893 10.1073C7.39976 10.3965 7.2373 10.7887 7.2373 11.1977V14.2713C7.2373 14.6802 7.39976 15.0724 7.68893 15.3616C7.9781 15.6507 8.3703 15.8132 8.77925 15.8132H10.5504L13.5582 18.7686C13.6305 18.8398 13.7221 18.888 13.8217 18.9072C13.9213 18.9264 14.0244 18.9157 14.1179 18.8765C14.2114 18.8373 14.2912 18.7712 14.3473 18.6867C14.4034 18.6022 14.4332 18.503 14.433 18.4016V7.09404Z" fill="#4E5768"/>
<path d="M15.5739 9.85827C15.616 9.80539 15.668 9.76131 15.7271 9.72855C15.7862 9.69579 15.8511 9.675 15.9182 9.66736C15.9853 9.65972 16.0533 9.66539 16.1182 9.68404C16.1832 9.70268 16.2438 9.73395 16.2966 9.77604H16.2976L16.2987 9.77706L16.3007 9.77912L16.3069 9.78323L16.3223 9.7966L16.3686 9.83771C16.5856 10.0461 16.7746 10.2817 16.9308 10.5388C17.231 11.0322 17.5209 11.7651 17.5209 12.7468C17.5209 13.7275 17.231 14.4615 16.9308 14.9549C16.8112 15.1536 16.6721 15.3399 16.5156 15.511C16.4499 15.5821 16.3802 15.6494 16.3069 15.7125L16.2987 15.7197C16.2987 15.7197 15.8392 15.9695 15.575 15.6395C15.4905 15.5335 15.4513 15.3984 15.4659 15.2637C15.4805 15.1289 15.5478 15.0053 15.6531 14.9199L15.6541 14.9179V14.9189L15.6552 14.9179L15.6737 14.9014C15.8196 14.7579 15.9471 14.5966 16.053 14.4214C16.2678 14.0667 16.4929 13.5147 16.4929 12.7458C16.4929 11.9779 16.2678 11.4269 16.053 11.0733C15.947 10.8988 15.8195 10.7382 15.6737 10.5953C15.6676 10.5897 15.6614 10.5843 15.6552 10.5789H15.6562C15.55 10.494 15.4817 10.3706 15.4663 10.2356C15.4509 10.1005 15.4896 9.96485 15.5739 9.85827Z" fill="#4E5768"/>
</svg>
